<svg width="311" height="42" viewBox="0 0 311 42" fill="none" xmlns="http://www.w3.org/2000/svg">
<path d="M32.4911 33H29.9711V9.6H39.8711V11.76H32.4911V20.04H38.4311V22.2H32.4911V33ZM56.0725 33H54.9925L54.0565 30.696C53.5525 31.56 52.8925 32.256 52.0765 32.784C51.2605 33.288 50.3605 33.54 49.3765 33.54C45.9205 33.54 44.1925 31.86 44.1925 28.5V24.9C44.1925 21.54 45.9205 19.86 49.3765 19.86H53.5525V13.956C53.5525 13.092 53.2765 12.42 52.7245 11.94C52.1725 11.46 51.3565 11.22 50.2765 11.22C48.1405 11.22 47.0725 12.132 47.0725 13.956V16.08H44.5525V14.1C44.5525 12.492 45.0205 11.256 45.9565 10.392C46.9165 9.504 48.3565 9.06 50.2765 9.06C52.1965 9.06 53.6365 9.504 54.5965 10.392C55.5805 11.256 56.0725 12.492 56.0725 14.1V33ZM53.5525 22.02H49.3765C48.3685 22.02 47.6725 22.272 47.2885 22.776C46.9045 23.28 46.7125 23.988 46.7125 24.9V28.5C46.7125 29.412 46.9045 30.12 47.2885 30.624C47.6725 31.128 48.3685 31.38 49.3765 31.38C50.3845 31.38 51.3205 30.996 52.1845 30.228C53.0485 29.436 53.5045 28.656 53.5525 27.888V22.02ZM74.3605 28.5C74.3605 31.86 72.3325 33.54 68.2765 33.54C64.2205 33.54 62.1925 31.86 62.1925 28.5V25.44H64.7125V28.644C64.7125 29.508 65.0125 30.18 65.6125 30.66C66.2125 31.14 67.1005 31.38 68.2765 31.38C69.4525 31.38 70.3405 31.14 70.9405 30.66C71.5405 30.18 71.8405 29.532 71.8405 28.716C71.8405 27.876 71.7445 27.216 71.5525 26.736C71.3845 26.232 71.0245 25.704 70.4725 25.152L64.1365 18.96C63.3925 18.216 62.8765 17.496 62.5885 16.8C62.3245 16.08 62.1925 15.18 62.1925 14.1C62.1925 12.492 62.6845 11.256 63.6685 10.392C64.6765 9.504 66.1885 9.06 68.2045 9.06C72.0685 9.06 74.0005 10.74 74.0005 14.1V17.16H71.4805V13.956C71.4805 13.092 71.1925 12.42 70.6165 11.94C70.0645 11.46 69.2245 11.22 68.0965 11.22C66.9685 11.22 66.1165 11.46 65.5405 11.94C64.9885 12.42 64.7125 13.08 64.7125 13.92C64.7125 14.76 64.7965 15.42 64.9645 15.9C65.1325 16.38 65.5045 16.884 66.0805 17.412L72.5245 23.604C73.2205 24.372 73.7005 25.116 73.9645 25.836C74.2285 26.532 74.3605 27.42 74.3605 28.5ZM83.3622 33H80.8422V9.6H83.3622V20.04H90.4542V9.6H92.9742V33H90.4542V22.2H83.3622V33ZM102.698 33H100.178V9.6H102.698V33ZM121.581 14.1V28.5C121.581 30.108 121.065 31.356 120.033 32.244C119.025 33.108 117.501 33.54 115.461 33.54C113.445 33.54 111.921 33.108 110.889 32.244C109.857 31.356 109.341 30.108 109.341 28.5V14.1C109.341 12.492 109.845 11.256 110.853 10.392C111.885 9.504 113.409 9.06 115.425 9.06C117.465 9.06 119.001 9.504 120.033 10.392C121.065 11.256 121.581 12.492 121.581 14.1ZM119.061 28.5V14.1C119.061 12.18 117.861 11.22 115.461 11.22C113.061 11.22 111.861 12.18 111.861 14.1V28.5C111.861 30.42 113.061 31.38 115.461 31.38C117.861 31.38 119.061 30.42 119.061 28.5ZM130.753 33H128.233V9.6H129.313L130.213 11.94C131.365 10.02 132.961 9.06 135.001 9.06C138.529 9.06 140.293 10.74 140.293 14.1V33H137.773V14.1C137.773 13.188 137.569 12.48 137.161 11.976C136.777 11.472 136.057 11.22 135.001 11.22C133.945 11.22 132.973 11.628 132.085 12.444C131.197 13.26 130.753 14.052 130.753 14.82V33ZM157.964 33H155.444V9.6H165.344V11.76H157.964V20.04H163.904V22.2H157.964V33ZM182.085 14.1V28.5C182.085 30.108 181.569 31.356 180.537 32.244C179.529 33.108 178.005 33.54 175.965 33.54C173.949 33.54 172.425 33.108 171.393 32.244C170.361 31.356 169.845 30.108 169.845 28.5V14.1C169.845 12.492 170.349 11.256 171.357 10.392C172.389 9.504 173.913 9.06 175.929 9.06C177.969 9.06 179.505 9.504 180.537 10.392C181.569 11.256 182.085 12.492 182.085 14.1ZM179.565 28.5V14.1C179.565 12.18 178.365 11.22 175.965 11.22C173.565 11.22 172.365 12.18 172.365 14.1V28.5C172.365 30.42 173.565 31.38 175.965 31.38C178.365 31.38 179.565 30.42 179.565 28.5ZM191.257 33H188.737V9.6H189.817L190.861 12.264C191.629 10.128 192.853 9.06 194.533 9.06C197.389 9.06 198.817 10.62 198.817 13.74V16.08H196.405V13.596C196.405 12.012 195.745 11.22 194.425 11.22C193.633 11.22 192.901 11.676 192.229 12.588C191.581 13.5 191.257 14.82 191.257 16.548V33ZM211.971 28.5V26.52H214.491V28.5C214.491 30.108 213.999 31.356 213.015 32.244C212.031 33.108 210.555 33.54 208.587 33.54C206.619 33.54 205.131 33.108 204.123 32.244C203.115 31.356 202.611 30.108 202.611 28.5V14.1C202.611 12.492 203.103 11.256 204.087 10.392C205.071 9.504 206.547 9.06 208.515 9.06C210.483 9.06 211.971 9.504 212.979 10.392C213.987 11.256 214.491 12.492 214.491 14.1V22.02H205.131V28.5C205.131 30.42 206.271 31.38 208.551 31.38C210.831 31.38 211.971 30.42 211.971 28.5ZM205.131 14.1V19.86H211.971V14.1C211.971 12.18 210.831 11.22 208.551 11.22C206.271 11.22 205.131 12.18 205.131 14.1ZM229.971 28.5V26.52H232.491V28.5C232.491 30.108 231.999 31.356 231.015 32.244C230.031 33.108 228.555 33.54 226.587 33.54C224.619 33.54 223.131 33.108 222.123 32.244C221.115 31.356 220.611 30.108 220.611 28.5V14.1C220.611 12.492 221.103 11.256 222.087 10.392C223.071 9.504 224.547 9.06 226.515 9.06C228.483 9.06 229.971 9.504 230.979 10.392C231.987 11.256 232.491 12.492 232.491 14.1V17.52H229.971V14.1C229.971 12.18 228.831 11.22 226.551 11.22C224.271 11.22 223.131 12.18 223.131 14.1V28.5C223.131 30.42 224.271 31.38 226.551 31.38C228.831 31.38 229.971 30.42 229.971 28.5ZM249.959 33H248.879L247.943 30.696C247.439 31.56 246.779 32.256 245.963 32.784C245.147 33.288 244.247 33.54 243.263 33.54C239.807 33.54 238.079 31.86 238.079 28.5V24.9C238.079 21.54 239.807 19.86 243.263 19.86H247.439V13.956C247.439 13.092 247.163 12.42 246.611 11.94C246.059 11.46 245.243 11.22 244.163 11.22C242.027 11.22 240.959 12.132 240.959 13.956V16.08H238.439V14.1C238.439 12.492 238.907 11.256 239.843 10.392C240.803 9.504 242.243 9.06 244.163 9.06C246.083 9.06 247.523 9.504 248.483 10.392C249.467 11.256 249.959 12.492 249.959 14.1V33ZM247.439 22.02H243.263C242.255 22.02 241.559 22.272 241.175 22.776C240.791 23.28 240.599 23.988 240.599 24.9V28.5C240.599 29.412 240.791 30.12 241.175 30.624C241.559 31.128 242.255 31.38 243.263 31.38C244.271 31.38 245.207 30.996 246.071 30.228C246.935 29.436 247.391 28.656 247.439 27.888V22.02ZM268.247 28.5C268.247 31.86 266.219 33.54 262.163 33.54C258.107 33.54 256.079 31.86 256.079 28.5V25.44H258.599V28.644C258.599 29.508 258.899 30.18 259.499 30.66C260.099 31.14 260.987 31.38 262.163 31.38C263.339 31.38 264.227 31.14 264.827 30.66C265.427 30.18 265.727 29.532 265.727 28.716C265.727 27.876 265.631 27.216 265.439 26.736C265.271 26.232 264.911 25.704 264.359 25.152L258.023 18.96C257.279 18.216 256.763 17.496 256.475 16.8C256.211 16.08 256.079 15.18 256.079 14.1C256.079 12.492 256.571 11.256 257.555 10.392C258.563 9.504 260.075 9.06 262.091 9.06C265.955 9.06 267.887 10.74 267.887 14.1V17.16H265.367V13.956C265.367 13.092 265.079 12.42 264.503 11.94C263.951 11.46 263.111 11.22 261.983 11.22C260.855 11.22 260.003 11.46 259.427 11.94C258.875 12.42 258.599 13.08 258.599 13.92C258.599 14.76 258.683 15.42 258.851 15.9C259.019 16.38 259.391 16.884 259.967 17.412L266.411 23.604C267.107 24.372 267.587 25.116 267.851 25.836C268.115 26.532 268.247 27.42 268.247 28.5ZM274.189 9.6H282.109V11.76H276.709V29.004C276.709 29.676 276.877 30.24 277.213 30.696C277.573 31.152 278.065 31.38 278.689 31.38C279.337 31.38 279.829 31.164 280.165 30.732C280.501 30.276 280.669 29.7 280.669 29.004V24.72H283.189V28.86C283.189 30.372 282.781 31.536 281.965 32.352C281.173 33.144 280.093 33.54 278.725 33.54C277.357 33.54 276.253 33.144 275.413 32.352C274.597 31.536 274.189 30.372 274.189 28.86V9.6Z" fill="black"/>
</svg>
